<?xml version="1.0" standalone="no"?>
<!DOCTYPE svg PUBLIC "-//W3C//DTD SVG 20010904//EN"
 "http://www.w3.org/TR/2001/REC-SVG-20010904/DTD/svg10.dtd">
<svg version="1.0" xmlns="http://www.w3.org/2000/svg"
 width="480.000000pt" height="519.000000pt" viewBox="0 0 480.000000 519.000000"
 preserveAspectRatio="xMidYMid meet">

<g transform="translate(0.000000,519.000000) scale(0.100000,-0.100000)"
fill="#000000" stroke="none">
<path d="M2260 5183 c-184 -9 -557 -82 -607 -118 -14 -11 -11 -25 27 -146 24
-74 43 -138 44 -143 1 -4 -44 -27 -99 -50 -147 -62 -209 -93 -322 -163 -55
-35 -103 -63 -106 -63 -3 0 -42 52 -87 115 -45 63 -86 117 -92 121 -23 14
-251 -181 -398 -342 -72 -77 -160 -192 -160 -206 1 -7 55 -52 120 -100 l120
-87 -55 -86 c-75 -117 -145 -252 -186 -362 -19 -51 -40 -93 -47 -93 -7 0 -68
18 -136 40 -67 22 -130 40 -139 40 -10 0 -21 -17 -31 -52 -61 -214 -94 -410
-98 -593 l-3 -130 152 -3 151 -3 7 -87 c9 -124 32 -271 61 -391 21 -83 23
-105 13 -112 -8 -4 -65 -24 -129 -45 -161 -51 -152 -44 -133 -102 8 -26 21
-60 27 -77 7 -16 19 -46 26 -65 26 -69 109 -237 150 -305 79 -129 132 -205
142 -205 6 0 61 37 122 82 61 44 115 81 121 82 6 1 45 -39 87 -89 80 -96 201
-214 283 -279 28 -22 54 -44 59 -48 10 -8 -11 -40 -111 -174 -29 -40 -53 -76
-53 -82 0 -20 209 -151 362 -226 155 -76 323 -141 338 -131 5 3 28 65 51 138
23 73 45 135 48 139 3 4 40 -2 81 -13 109 -29 279 -57 403 -65 l107 -7 0 -146
c0 -80 4 -151 8 -158 13 -21 355 10 526 48 126 28 228 57 239 68 10 10 5 27
-54 215 -11 32 -19 64 -19 71 0 6 43 29 95 49 116 46 267 123 356 182 91 60
91 60 119 16 53 -81 145 -201 155 -202 22 0 185 138 305 259 149 150 257 286
241 304 -5 7 -60 49 -120 92 -61 44 -110 83 -111 87 0 4 20 38 45 75 57 85
142 251 185 363 19 47 35 86 36 88 1 2 58 -14 126 -36 67 -22 133 -43 145 -46
19 -6 25 -2 34 21 18 47 56 202 78 316 22 114 47 397 37 422 -4 12 -32 15
-155 15 l-149 0 -7 103 c-8 131 -38 314 -69 422 -13 47 -21 87 -17 89 3 1 66
22 139 46 73 23 136 48 139 56 9 23 -55 187 -136 348 -78 155 -197 346 -217
346 -6 0 -52 -30 -103 -67 -51 -38 -105 -76 -120 -86 l-28 -17 -60 72 c-71 86
-226 239 -300 298 -29 23 -53 46 -53 51 0 10 82 126 137 195 18 23 31 48 28
55 -12 29 -233 165 -390 240 -189 90 -293 125 -311 106 -6 -6 -30 -72 -53
-145 -33 -105 -46 -132 -57 -128 -81 31 -377 86 -464 86 -30 0 -72 3 -92 6
l-37 7 -3 151 -3 151 -45 1 c-25 0 -74 -1 -110 -3z m126 -53 c1 -8 2 -77 3
-152 l1 -138 63 0 c58 0 259 -21 317 -34 151 -32 239 -55 255 -67 20 -15 32 7
75 141 23 74 45 138 47 142 7 13 143 -41 298 -118 130 -64 228 -122 315 -186
l22 -17 -86 -119 c-47 -65 -86 -124 -86 -130 0 -5 23 -27 51 -47 92 -66 274
-250 380 -385 l27 -33 123 90 123 91 31 -42 c73 -95 218 -368 256 -481 7 -22
16 -44 20 -50 3 -5 9 -22 12 -36 6 -25 3 -28 -66 -52 -39 -13 -98 -33 -129
-42 -88 -27 -92 -32 -75 -85 44 -133 87 -396 87 -530 l0 -80 155 0 155 0 0
-59 c0 -188 -80 -624 -117 -638 -7 -3 -71 14 -142 37 -71 23 -135 40 -141 38
-7 -2 -31 -53 -54 -113 -47 -124 -125 -275 -197 -383 -27 -40 -49 -76 -48 -80
0 -7 123 -99 197 -147 23 -15 42 -31 42 -36 0 -12 -93 -125 -190 -230 -93
-101 -282 -264 -305 -264 -7 0 -50 50 -94 112 -45 62 -84 114 -89 117 -4 2
-52 -24 -107 -59 -55 -34 -134 -80 -175 -102 -94 -50 -272 -123 -299 -123 -12
0 -21 -6 -21 -12 0 -7 20 -76 45 -152 25 -77 43 -141 41 -143 -6 -6 -137 -40
-238 -62 -95 -20 -347 -51 -420 -51 l-38 0 0 148 c0 102 -4 152 -12 160 -7 7
-44 12 -94 12 -103 0 -317 32 -441 66 -55 15 -99 22 -104 17 -5 -5 -23 -52
-40 -103 -17 -52 -38 -114 -46 -137 l-15 -42 -72 26 c-204 73 -565 275 -552
309 2 6 41 61 85 122 45 60 81 112 81 115 0 3 -37 35 -82 72 -141 115 -368
358 -368 394 0 25 -36 6 -145 -74 -63 -47 -119 -85 -124 -85 -14 0 -150 220
-199 322 -48 99 -122 282 -122 300 0 8 47 27 113 48 61 19 126 40 143 47 l32
12 -25 93 c-42 161 -68 334 -76 503 l-2 50 -154 3 -154 3 7 123 c9 180 75 537
105 568 4 4 69 -12 146 -37 76 -24 142 -42 145 -40 4 3 18 33 30 67 62 169
214 456 265 498 8 7 15 16 15 20 0 5 -56 50 -125 101 -108 79 -123 94 -113
108 56 72 171 201 245 273 104 102 234 209 248 205 6 -2 47 -55 93 -118 45
-63 88 -114 95 -114 7 0 50 25 97 56 141 93 224 133 453 221 15 6 27 16 27 22
0 7 -20 72 -45 146 -24 74 -41 137 -37 141 11 9 205 57 305 75 194 34 391 42
393 14z"/>
<path d="M2190 4314 c-240 -33 -479 -128 -684 -272 -84 -59 -257 -224 -317
-302 -151 -197 -245 -403 -301 -653 -32 -145 -32 -454 1 -601 168 -774 838
-1284 1619 -1234 615 39 1152 454 1351 1044 59 175 75 278 75 494 0 165 -3
211 -22 296 -33 151 -67 245 -137 389 -289 589 -930 928 -1585 839z m517 -53
c614 -133 1079 -622 1178 -1238 19 -119 19 -362 0 -471 -31 -176 -66 -283
-142 -437 -210 -424 -603 -718 -1088 -811 -125 -24 -387 -24 -510 0 -174 34
-262 63 -420 142 -420 207 -723 614 -805 1081 -37 206 -25 463 30 659 164 583
653 1011 1250 1094 108 15 401 4 507 -19z"/>
</g>
</svg>
